<?xml version="1.0" standalone="no"?>
<!DOCTYPE svg PUBLIC "-//W3C//DTD SVG 20010904//EN"
 "http://www.w3.org/TR/2001/REC-SVG-20010904/DTD/svg10.dtd">
<svg version="1.0" xmlns="http://www.w3.org/2000/svg"
 width="260.000000pt" height="280.000000pt" viewBox="0 0 260.000000 280.000000"
 preserveAspectRatio="xMidYMid meet">
<metadata>
Created by potrace 1.16, written by Peter Selinger 2001-2019
</metadata>
<g transform="translate(0.000000,280.000000) scale(0.100000,-0.100000)"
fill="#000000" stroke="none">
<path d="M1078 2090 c-224 -11 -248 -18 -329 -99 -50 -50 -78 -90 -116 -166
-50 -100 -50 -101 -62 -73 -13 30 -42 42 -100 42 -39 0 -71 -32 -71 -71 0 -24
42 -75 69 -84 10 -4 6 -13 -14 -34 -39 -43 -55 -86 -55 -153 0 -66 21 -144 56
-214 21 -42 24 -61 24 -162 0 -107 2 -117 24 -143 l24 -28 160 0 c156 0 161 1
186 24 14 14 26 33 26 43 0 17 19 18 400 18 381 0 400 -1 400 -18 0 -10 12
-29 26 -43 25 -23 30 -24 186 -24 l160 0 24 28 c22 26 24 36 24 143 0 101 3
120 24 162 35 70 56 148 56 214 0 67 -16 110 -55 153 -20 21 -24 30 -14 34 27
9 69 60 69 84 0 39 -32 71 -71 71 -58 0 -84 -12 -100 -44 l-14 -31 -49 91
c-58 106 -126 193 -181 232 -32 23 -57 30 -125 37 -133 14 -409 19 -582 11z
m487 -90 c135 -11 147 -17 208 -96 40 -52 125 -210 117 -217 -3 -2 -79 0 -170
4 -91 4 -280 7 -420 7 -140 0 -329 -3 -420 -7 -91 -4 -167 -6 -170 -4 -8 7 78
165 118 218 59 77 77 86 188 95 148 11 414 11 549 0z m-841 -505 c84 -29 106
-48 106 -91 0 -63 -34 -78 -174 -72 -83 3 -97 6 -120 27 -14 13 -28 36 -31 52
-7 31 15 82 42 98 30 18 105 12 177 -14z m1327 15 c28 -16 51 -67 44 -99 -3
-16 -17 -39 -31 -52 -21 -20 -37 -24 -119 -27 -140 -6 -175 8 -175 73 0 26 7
39 31 56 65 46 204 73 250 49z"/>
</g>
</svg>
