<?xml version="1.0" standalone="no"?>
<!DOCTYPE svg PUBLIC "-//W3C//DTD SVG 20010904//EN"
 "http://www.w3.org/TR/2001/REC-SVG-20010904/DTD/svg10.dtd">
<svg version="1.0" xmlns="http://www.w3.org/2000/svg"
 width="512.000000pt" height="512.000000pt" viewBox="0 0 512.000000 512.000000"
 preserveAspectRatio="xMidYMid meet">
<metadata>
Created by potrace 1.16, written by Peter Selinger 2001-2019
</metadata>
<g transform="translate(0.000000,512.000000) scale(0.100000,-0.100000)"
fill="#000000" stroke="none">
<path d="M3592 4788 c-674 -84 -1183 -664 -1182 -1345 1 -494 256 -936 683
-1181 518 -297 1181 -216 1611 198 195 187 314 394 383 665 34 135 43 383 20
531 -53 332 -246 658 -509 861 -281 216 -651 316 -1006 271z m346 -329 c210
-33 415 -141 567 -301 121 -126 198 -254 248 -413 117 -370 3 -792 -284 -1060
-119 -111 -287 -203 -449 -246 -116 -32 -376 -34 -490 -5 -348 89 -623 338
-740 671 -33 96 -60 244 -60 335 0 85 27 242 56 328 73 216 224 411 414 536
220 145 469 197 738 155z"/>
<path d="M3699 4144 c-7 -9 -15 -48 -18 -87 -6 -69 -7 -71 -36 -79 -56 -14
-138 -72 -171 -121 -56 -81 -67 -203 -26 -282 43 -85 97 -127 245 -191 165
-73 207 -111 207 -190 0 -54 -58 -109 -125 -120 -56 -8 -141 6 -211 36 -82 36
-109 25 -139 -54 -35 -91 -12 -108 218 -160 26 -6 27 -9 27 -69 0 -89 15 -107
90 -107 76 0 90 17 90 112 0 65 1 68 28 74 91 22 191 108 222 192 12 30 20 77
20 111 0 160 -63 235 -283 340 -187 89 -223 131 -182 210 31 61 138 78 260 40
89 -27 115 -23 137 21 27 54 33 99 16 116 -7 8 -56 25 -108 38 l-95 24 -5 64
c-3 36 -11 72 -19 81 -19 23 -123 24 -142 1z"/>
<path d="M2100 1940 c-266 -33 -565 -81 -587 -95 -15 -10 -23 -28 -27 -57 -3
-24 -24 -326 -46 -673 -35 -562 -38 -632 -24 -652 21 -33 45 -29 102 16 69 55
149 98 204 110 41 9 75 5 255 -29 744 -142 1520 -251 1687 -238 232 19 1240
587 1388 783 124 164 69 355 -102 355 -51 0 -74 -8 -199 -70 -293 -145 -570
-239 -901 -306 -105 -22 -354 -29 -481 -14 -209 24 -386 68 -506 127 -52 26
-103 73 -103 95 0 15 90 5 295 -32 223 -40 482 -52 596 -26 151 34 234 108
233 209 -2 98 -43 144 -158 178 -39 12 -183 56 -321 99 -413 129 -646 192
-839 225 -113 19 -282 18 -466 -5z"/>
<path d="M215 1901 c-36 -22 -61 -49 -69 -76 -8 -28 -146 -1287 -146 -1335 0
-27 8 -48 24 -67 l24 -28 469 0 c371 0 475 3 500 14 65 27 66 30 119 744 l48
647 -20 28 c-12 15 -32 33 -47 40 -17 8 -157 19 -414 32 -472 24 -451 24 -488
1z m473 -917 c110 -45 162 -174 113 -279 -76 -165 -306 -165 -382 0 -78 167
99 351 269 279z"/>
</g>
</svg>
