<?xml version="1.0" standalone="no"?>
<!DOCTYPE svg PUBLIC "-//W3C//DTD SVG 20010904//EN"
 "http://www.w3.org/TR/2001/REC-SVG-20010904/DTD/svg10.dtd">
<svg version="1.0" xmlns="http://www.w3.org/2000/svg"
 width="225.000000pt" height="225.000000pt" viewBox="0 0 225.000000 225.000000"
 preserveAspectRatio="xMidYMid meet">
<metadata>
Created by potrace 1.16, written by Peter Selinger 2001-2019
</metadata>
<g transform="translate(0.000000,225.000000) scale(0.100000,-0.100000)"
fill="#000000" stroke="none">
<path d="M952 2099 c-30 -5 -87 -20 -128 -34 -267 -90 -472 -269 -589 -517
-76 -161 -90 -226 -90 -423 0 -148 3 -181 23 -250 83 -289 273 -516 533 -639
162 -77 227 -91 424 -91 197 0 262 14 424 91 208 98 367 257 466 466 76 161
90 226 90 423 0 148 -3 181 -23 250 -83 289 -273 516 -533 639 -149 71 -220
87 -394 91 -82 2 -174 0 -203 -6z m322 -502 c71 -33 135 -98 172 -173 25 -52
28 -70 28 -149 0 -69 -5 -100 -21 -135 -45 -99 -122 -169 -222 -200 -80 -25
-132 -25 -212 0 -100 31 -177 101 -222 200 -16 35 -21 66 -21 135 0 79 3 97
28 149 48 98 134 171 233 196 63 16 176 5 237 -23z m-294 -763 c52 -18 93 -25
145 -25 52 0 93 7 145 25 41 15 83 26 95 26 75 0 266 -144 341 -257 l38 -57
-60 -54 c-321 -292 -797 -292 -1118 0 l-60 54 38 57 c75 113 266 257 341 257
12 0 54 -11 95 -26z"/>
</g>
</svg>
