<?xml version="1.0" standalone="no"?>
<!DOCTYPE svg PUBLIC "-//W3C//DTD SVG 20010904//EN"
 "http://www.w3.org/TR/2001/REC-SVG-20010904/DTD/svg10.dtd">
<svg version="1.0" xmlns="http://www.w3.org/2000/svg"
 width="225.000000pt" height="225.000000pt" viewBox="0 0 225.000000 225.000000"
 preserveAspectRatio="xMidYMid meet">
<metadata>
Created by potrace 1.16, written by Peter Selinger 2001-2019
</metadata>
<g transform="translate(0.000000,225.000000) scale(0.100000,-0.100000)"
fill="#000000" stroke="none">
<path d="M980 1718 c-162 -62 -268 -203 -278 -369 -3 -44 1 -100 8 -131 34
-141 140 -333 312 -564 92 -123 112 -144 123 -133 7 8 70 99 139 202 136 202
226 372 252 477 25 98 16 208 -23 292 -76 161 -213 249 -391 247 -63 0 -102
-6 -142 -21z m302 -60 c172 -80 258 -280 198 -458 -35 -106 -102 -179 -207
-227 -49 -23 -71 -28 -148 -28 -81 0 -97 3 -155 31 -300 144 -289 562 17 690
82 35 212 31 295 -8z"/>
<path d="M1050 1666 c-105 -22 -199 -96 -248 -195 -24 -50 -27 -67 -27 -156 0
-81 4 -109 22 -147 30 -66 102 -139 170 -174 53 -26 67 -29 158 -29 85 0 107
4 148 24 71 35 142 104 174 169 25 51 28 68 28 157 0 87 -3 107 -26 155 -47
100 -150 178 -263 199 -69 13 -65 13 -136 -3z m178 -126 c73 -16 112 -62 112
-131 0 -100 -49 -140 -177 -147 l-83 -5 0 -78 0 -79 -50 0 -50 0 0 218 c0 120
2 221 6 224 10 11 190 9 242 -2z"/>
<path d="M1080 1400 l0 -50 54 0 c30 0 67 4 81 10 23 9 26 15 23 47 l-3 38
-77 3 -78 3 0 -51z"/>
</g>
</svg>
