<?xml version="1.0" standalone="no"?>
<!DOCTYPE svg PUBLIC "-//W3C//DTD SVG 20010904//EN"
 "http://www.w3.org/TR/2001/REC-SVG-20010904/DTD/svg10.dtd">
<svg version="1.0" xmlns="http://www.w3.org/2000/svg"
 width="1200.000000pt" height="1200.000000pt" viewBox="0 0 1200.000000 1200.000000"
 preserveAspectRatio="xMidYMid meet">
<metadata>
Created by potrace 1.16, written by Peter Selinger 2001-2019
</metadata>
<g transform="translate(0.000000,1200.000000) scale(0.100000,-0.100000)"
fill="#000000" stroke="none">
<path d="M5645 11933 c-975 -64 -1885 -346 -2704 -838 -829 -498 -1539 -1208
-2037 -2037 -673 -1121 -954 -2422 -808 -3733 218 -1954 1410 -3686 3166
-4599 1047 -545 2227 -762 3413 -630 1553 173 2985 966 3968 2197 989 1238
1437 2794 1261 4382 -192 1730 -1161 3311 -2624 4280 -870 576 -1824 898
-2890 975 -123 9 -624 11 -745 3z m95 -2184 l0 -1441 -117 6 c-418 24 -822 81
-1223 172 -224 51 -551 145 -557 160 -5 15 100 248 210 464 331 648 762 1236
1284 1751 246 243 343 329 376 329 l27 0 0 -1441z m649 1374 c125 -110 425
-409 545 -543 456 -506 835 -1079 1121 -1690 99 -211 110 -239 99 -250 -13
-12 -216 -71 -429 -124 -427 -106 -887 -175 -1347 -202 l-118 -6 0 1441 0
1441 26 0 c19 0 50 -21 103 -67z m-1605 -85 c-10 -13 -50 -57 -88 -98 -510
-556 -996 -1308 -1301 -2016 l-48 -112 -101 43 c-365 154 -694 323 -1009 517
l-128 80 98 105 c213 230 553 524 832 717 486 337 1054 600 1616 750 157 42
153 41 129 14z m2560 -14 c936 -253 1803 -771 2444 -1461 l102 -111 -77 -50
c-284 -181 -720 -407 -1067 -551 l-94 -39 -28 66 c-106 253 -291 619 -442 872
-238 400 -587 873 -878 1190 -93 101 -108 120 -99 120 4 0 66 -16 139 -36z
m-5434 -2055 c177 -112 408 -242 640 -358 197 -100 481 -229 573 -262 20 -7
37 -18 37 -24 0 -7 -15 -61 -34 -121 -118 -375 -202 -735 -260 -1114 -41 -265
-76 -622 -76 -766 l0 -64 -990 0 -990 0 0 50 c0 65 25 314 46 450 97 648 310
1265 629 1820 121 211 286 460 305 460 5 0 59 -32 120 -71z m8374 -22 c214
-308 420 -695 561 -1057 184 -473 312 -1043 341 -1521 l7 -109 -990 0 -990 0
-7 143 c-28 564 -149 1223 -327 1784 -21 68 -39 129 -39 136 0 7 33 25 73 41
357 143 861 402 1175 605 59 38 112 70 119 70 7 1 41 -41 77 -92z m-6164 -922
c509 -127 1072 -210 1555 -228 l60 -2 3 -767 2 -768 -1221 0 -1221 0 7 98 c42
622 151 1204 321 1723 l25 76 147 -44 c81 -24 226 -64 322 -88z m4284 -40
c159 -527 254 -1059 291 -1622 l7 -103 -1221 0 -1221 0 0 770 0 770 84 0 c266
0 876 76 1240 155 255 55 738 183 755 200 9 9 18 -16 65 -170z m-5620 -2267
c3 -13 7 -90 11 -173 20 -501 135 -1160 295 -1688 26 -89 51 -169 55 -177 4
-13 -24 -29 -132 -74 -372 -158 -825 -395 -1130 -592 -46 -30 -88 -54 -93 -54
-12 0 -117 152 -213 306 -367 590 -616 1270 -721 1974 -21 136 -46 385 -46
450 l0 50 985 0 985 0 4 -22z m2954 -745 l-3 -768 -145 -7 c-576 -27 -1213
-138 -1799 -313 -84 -25 -155 -45 -156 -43 -6 7 -57 173 -89 288 -129 461
-217 1001 -242 1478 l-7 132 1222 0 1221 0 -2 -767z m2958 645 c-25 -451 -93
-900 -201 -1328 -38 -153 -121 -440 -130 -448 -1 -2 -63 16 -136 38 -550 169
-1244 291 -1814 318 l-150 7 -3 768 -2 767 1221 0 1222 0 -7 -122z m2490 10
c-43 -699 -269 -1473 -613 -2103 -130 -238 -341 -565 -364 -565 -6 0 -29 13
-52 28 -255 173 -763 443 -1123 597 -98 43 -180 78 -181 79 -1 1 18 65 43 143
167 540 288 1220 309 1738 4 83 8 160 11 173 l4 22 987 0 986 0 -7 -112z
m-5446 -3378 l0 -1440 -60 0 -59 0 -133 123 c-514 478 -956 1039 -1305 1657
-128 227 -363 715 -363 754 0 24 431 142 774 211 336 68 796 124 1089 133 l57
2 0 -1440z m920 1414 c503 -45 922 -130 1503 -301 9 -3 17 -11 17 -18 0 -20
-112 -269 -205 -455 -367 -735 -865 -1401 -1463 -1957 l-133 -123 -59 0 -60 0
0 1441 0 1441 118 -6 c64 -4 191 -14 282 -22z m-3265 -644 c306 -707 737
-1381 1263 -1975 39 -44 69 -81 67 -83 -5 -6 -184 45 -340 95 -810 262 -1599
764 -2172 1380 l-104 111 128 80 c191 118 379 221 616 337 189 93 468 217 473
212 1 -1 32 -72 69 -157z m5511 60 c287 -127 841 -426 962 -519 l24 -18 -189
-189 c-280 -283 -525 -485 -833 -689 -449 -298 -933 -521 -1444 -666 -76 -21
-143 -39 -148 -39 -6 0 8 21 31 47 358 413 589 723 823 1103 155 251 360 647
478 922 l63 147 47 -19 c26 -10 110 -46 186 -80z"/>
</g>
</svg>
