<?xml version="1.0" standalone="no"?>
<!DOCTYPE svg PUBLIC "-//W3C//DTD SVG 20010904//EN"
 "http://www.w3.org/TR/2001/REC-SVG-20010904/DTD/svg10.dtd">
<svg version="1.0" xmlns="http://www.w3.org/2000/svg"
 width="416.000000pt" height="416.000000pt" viewBox="0 0 416.000000 416.000000"
 preserveAspectRatio="xMidYMid meet">
<metadata>
Created by potrace 1.16, written by Peter Selinger 2001-2019
</metadata>
<g transform="translate(0.000000,416.000000) scale(0.100000,-0.100000)"
fill="#000000" stroke="none">
<path d="M1925 3819 c-17 -4 -43 -21 -57 -36 l-27 -28 34 -195 c48 -266 47
-280 -23 -280 -44 0 -51 19 -88 233 -15 92 -31 167 -35 167 -3 0 -33 -18 -67
-39 -70 -46 -165 -137 -211 -205 -73 -105 -131 -276 -131 -383 l0 -53 -32 0
c-107 0 -154 -134 -71 -200 25 -20 39 -20 863 -20 824 0 838 0 863 20 83 66
36 200 -70 200 l-33 0 0 53 c0 126 -68 301 -164 425 -61 77 -236 217 -251 200
-1 -2 -15 -77 -30 -168 -36 -210 -43 -230 -87 -230 -70 0 -71 14 -23 280 l34
195 -26 27 c-15 16 -43 33 -62 38 -44 12 -264 12 -306 -1z"/>
<path d="M1350 2577 c0 -131 71 -332 164 -460 84 -118 203 -221 313 -270 240
-108 490 -61 693 130 172 161 273 365 287 576 l6 87 -732 0 -731 0 0 -63z"/>
<path d="M1430 1759 c-41 -10 -120 -41 -175 -68 -226 -111 -399 -303 -485
-539 -55 -151 -76 -335 -46 -407 8 -18 33 -54 56 -79 241 -262 1069 -400 1795
-300 453 62 791 211 861 380 42 101 -13 375 -111 550 -124 222 -361 403 -606
465 l-87 22 -34 -26 c-47 -36 -189 -101 -268 -124 -52 -14 -102 -18 -250 -18
-163 0 -194 3 -263 23 -83 24 -202 79 -254 118 -38 28 -37 28 -133 3z"/>
</g>
</svg>
