<?xml version="1.0" standalone="no"?>
<!DOCTYPE svg PUBLIC "-//W3C//DTD SVG 20010904//EN"
 "http://www.w3.org/TR/2001/REC-SVG-20010904/DTD/svg10.dtd">
<svg version="1.0" xmlns="http://www.w3.org/2000/svg"
 width="300.000000pt" height="300.000000pt" viewBox="0 0 300.000000 300.000000"
 preserveAspectRatio="xMidYMid meet">
<metadata>
Created by potrace 1.16, written by Peter Selinger 2001-2019
</metadata>
<g transform="translate(0.000000,300.000000) scale(0.100000,-0.100000)"
fill="#000000" stroke="none">
<path d="M1446 2507 c-21 -21 -23 -34 -29 -176 -9 -197 -9 -465 0 -662 6 -142
8 -155 29 -176 30 -30 78 -30 108 0 22 22 24 33 31 216 4 106 4 325 0 488 l-8
295 -31 19 c-41 25 -72 24 -100 -4z"/>
<path d="M1784 2270 c-31 -12 -64 -59 -64 -89 0 -36 35 -67 135 -122 98 -54
234 -185 288 -279 21 -36 49 -100 62 -143 85 -268 27 -533 -163 -738 -209
-226 -540 -299 -824 -184 -189 77 -353 254 -424 455 -32 91 -44 272 -25 372
26 134 91 264 183 365 54 58 185 156 244 182 84 37 94 135 18 167 -47 20 -114
-3 -226 -78 -189 -127 -318 -301 -382 -517 -42 -143 -40 -375 4 -519 52 -169
136 -301 267 -419 137 -123 272 -195 433 -229 108 -23 301 -18 411 10 278 70
492 244 615 501 67 137 85 223 84 391 0 199 -17 278 -92 428 -52 103 -98 165
-189 251 -82 78 -163 134 -242 170 -70 31 -88 35 -113 25z"/>
</g>
</svg>
