<?xml version="1.0" standalone="no"?>
<!DOCTYPE svg PUBLIC "-//W3C//DTD SVG 20010904//EN"
 "http://www.w3.org/TR/2001/REC-SVG-20010904/DTD/svg10.dtd">
<svg version="1.0" xmlns="http://www.w3.org/2000/svg"
 width="260.000000pt" height="280.000000pt" viewBox="0 0 260.000000 280.000000"
 preserveAspectRatio="xMidYMid meet">
<metadata>
Created by potrace 1.16, written by Peter Selinger 2001-2019
</metadata>
<g transform="translate(0.000000,280.000000) scale(0.100000,-0.100000)"
fill="#000000" stroke="none">
<path d="M490 1588 l0 -303 302 2 c167 2 491 3 721 3 l417 0 0 300 0 300 -720
0 -720 0 0 -302z m620 244 c0 -2 -14 -15 -30 -29 -45 -37 -80 -113 -87 -187
-8 -89 15 -160 73 -225 l46 -51 -225 0 -224 0 -27 40 c-14 22 -39 46 -56 55
l-30 16 0 137 1 137 32 20 c18 11 42 36 55 55 l22 35 225 0 c124 0 225 -1 225
-3z m674 -34 c12 -18 36 -42 53 -53 l32 -20 1 -137 0 -137 -30 -16 c-17 -9
-42 -33 -56 -55 l-27 -40 -224 0 -225 0 46 51 c56 63 81 136 73 219 -6 74 -41
153 -83 190 -19 16 -34 31 -34 32 0 2 102 2 226 1 l226 -3 22 -32z m-554 -47
c0 -12 11 -23 30 -30 60 -20 49 -70 -11 -54 -88 23 -95 -22 -9 -59 45 -20 61
-32 66 -52 10 -42 -4 -75 -41 -98 -21 -11 -35 -28 -35 -39 0 -14 -7 -19 -25
-19 -18 0 -25 5 -25 18 0 13 -13 24 -40 35 -43 16 -49 27 -26 46 11 10 24 9
55 0 32 -10 43 -9 56 1 26 22 17 35 -47 65 -60 28 -63 32 -66 69 -3 29 2 44
19 62 12 13 28 24 36 24 7 0 13 11 13 25 0 20 5 25 25 25 18 0 25 -5 25 -19z"/>
<path d="M1968 1528 l-3 -273 -692 -3 -693 -2 0 -25 0 -25 720 0 720 0 0 300
0 300 -25 0 -25 0 -2 -272z"/>
<path d="M2058 1438 l-3 -273 -692 -3 -693 -2 0 -25 0 -25 720 0 720 0 0 300
0 300 -25 0 -25 0 -2 -272z"/>
</g>
</svg>
